# xmcd CD database file
#
# Track frame offsets:
#	150
#	15904
#	34540
#	53006
#	72589
#	102400
#	116949
#	136560
#	153764
#	177376
#	199482
#	215350
#	243986
#	262722
#
# Disc length: 3685 seconds
#
# Revision: 0
# Processed by: cddbd v1.5.2PL0 Copyright (c) Steve Scherf et al.
# Submitted via: CDex 1.70beta2
#
DISCID=b80e630e
DTITLE=Big Tom and Hardware - Christmas Bootleg 1996
DYEAR=1996
DGENRE=Blues
TTITLE0=Evil Brothers Boogie
TTITLE1=One Bourbon, One Scotch, One Beer
TTITLE2=Great Wide Open
TTITLE3=Dead Flowers
TTITLE4=Wild Horses
TTITLE5=Jumpin Jack Flash
TTITLE6=La Grange
TTITLE7=Help Me
TTITLE8=The Breeze
TTITLE9=After Midnight
TTITLE10=Ain't No Sunshine
TTITLE11=Stormy Monday
TTITLE12=That's Alright
TTITLE13=Hoochie Coochie Man
EXTD=YEAR: 1996
EXTT0=
EXTT1=
EXTT2=
EXTT3=
EXTT4=
EXTT5=
EXTT6=
EXTT7=
EXTT8=
EXTT9=
EXTT10=
EXTT11=
EXTT12=
EXTT13=
PLAYORDER=
